<svg class="icon" width="128" height="128" viewBox="0 0 1024 1024" xmlns="http://www.w3.org/2000/svg"><path fill="#1296db" d="M512 85.333c72.533 0 139.808 8.363 200.203 22.326 21.258 4.906 40.192 10.208 56.586 15.52 9.302 3.018 16.107 5.472 20.246 7.114C831.733 144.907 864 192.107 864 238.624v385.035c0 43.402-25.13 95.52-58.837 121.109l-227.627 172.81c-36.992 28.086-94.005 28.15-131.072 0l-227.627-172.81C185.28 719.285 160 666.912 160 623.658V238.625c0-46.827 32.17-94.219 75.157-108.405 4.16-1.643 10.902-4.075 20.054-7.04a684.437 684.437 0 0 1 56.586-15.52C372.192 93.685 439.467 85.333 512 85.333zm0 64c-67.456 0-129.93 7.766-185.781 20.683-19.424 4.48-36.587 9.28-51.275 14.048a354.758 354.758 0 0 0-13.056 4.48c-2.059.747-3.35 1.248-3.84 1.45a32 32 0 0 1-2.485.886C239.488 195.915 224 218.507 224 238.624v385.035c0 23.498 16.128 56.917 33.536 70.133l227.627 172.81c14.176 10.774 39.53 10.742 53.674 0l227.627-172.81C784 680.469 800 647.307 800 623.659V238.624c0-19.84-15.627-42.507-32-47.883l-2.048-.746a143.83 143.83 0 0 0-3.84-1.451c-3.637-1.333-8-2.848-13.056-4.48a620.779 620.779 0 0 0-51.275-14.048c-55.85-12.917-118.325-20.683-185.781-20.683zm137.355 190.72a32 32 0 0 1 45.29 45.227L481.632 598.613a32 32 0 0 1-45.227.064L329.42 492.128a32 32 0 1 1 45.162-45.344l84.342 83.99z"/></svg>