<svg class="icon" width="128" height="128" viewBox="0 0 1024 1024" xmlns="http://www.w3.org/2000/svg"><path fill="#1296db" d="M878.08 731.275a32 32 0 0 1-54.88-32.939A360.79 360.79 0 0 0 874.667 512c0-200.299-162.368-362.667-362.667-362.667S149.333 311.701 149.333 512 311.701 874.667 512 874.667a360.79 360.79 0 0 0 186.315-51.446 32 32 0 0 1 32.928 54.88A424.779 424.779 0 0 1 512 938.667c-235.637 0-426.667-191.03-426.667-426.667S276.363 85.333 512 85.333 938.667 276.363 938.667 512c0 78.293-21.152 153.568-60.587 219.275zM650.667 437.333c0 65.899-46.72 120.854-109.195 135.083V608a32 32 0 0 1-64 0v-64a32 32 0 0 1 32-32c42.795 0 77.195-33.6 77.195-74.667s-34.4-74.666-77.195-74.666c-26.773 0-51.083 13.248-65.173 34.624a73.088 73.088 0 0 0-8.523 17.717 32 32 0 0 1-60.885-19.69 136.377 136.377 0 0 1 15.978-33.238c25.856-39.253 70.187-63.413 118.614-63.413 77.792 0 141.184 61.909 141.184 138.666zM512 736a32 32 0 1 1 0-64 32 32 0 0 1 0 64z"/></svg>