<svg class="icon" width="128" height="128" viewBox="0 0 1024 1024" xmlns="http://www.w3.org/2000/svg"><path fill="#1296db" d="m822.496 473.152 52.053 29.29C869.461 306.56 709.1 149.334 512 149.334c-200.299 0-362.667 162.368-362.667 362.667S311.701 874.667 512 874.667c122.539 0 234.645-61.195 301.579-161.152a32 32 0 1 1 53.173 35.616C788.064 866.635 656.117 938.667 512 938.667c-235.637 0-426.667-191.03-426.667-426.667S276.363 85.333 512 85.333 938.667 276.363 938.667 512c0 10.955-.854 26.357-2.518 46.528-1.93 23.243-27.274 36.683-47.594 25.248l-97.451-54.848a32 32 0 1 1 31.392-55.787zm-493.12 176.213L480 498.763V320a32 32 0 0 1 64 0v192a32 32 0 0 1-9.376 22.624l-160 160a32 32 0 1 1-45.248-45.248z"/></svg>