<svg class="icon" width="128" height="128" viewBox="0 0 1024 1024" xmlns="http://www.w3.org/2000/svg"><path fill="#1296db" d="M413.75 565.045a32 32 0 1 0 47.167 43.243l105.088-114.635a53.333 53.333 0 0 0 2.88-68.672 920.672 920.672 0 0 1-61.44-89.44c-17.077-28.458.822-73.226 37.846-110.25 10.901-10.88 17.045-16.566 25.813-23.211 26.368-20.032 56.97-31.413 96.672-31.413 126.037 0 206.89 102.144 206.89 249.546 0 112.406-113.525 251.904-344.298 413.654a32 32 0 0 1-36.736 0c-230.773-161.76-344.299-301.259-344.299-413.664 0-147.392 80.854-249.536 206.88-249.536 13.782 0 26.592 2.026 38.934 5.93a32 32 0 0 0 19.36-60.992 191.093 191.093 0 0 0-58.294-8.938c-165.077 0-270.88 133.653-270.88 313.546 0 139.574 125.099 293.323 371.574 466.059a96 96 0 0 0 110.186 0c246.475-172.736 371.574-326.485 371.574-466.059 0-179.893-105.803-313.546-270.88-313.546-54.443 0-98.379 16.341-135.392 44.437-11.67 8.864-19.542 16.128-32.352 28.939-55.424 55.413-84.16 127.274-47.478 188.416a975.872 975.872 0 0 0 60.214 88.544L413.76 565.045z"/></svg>