<svg class="icon" width="128" height="128" viewBox="0 0 1024 1024" xmlns="http://www.w3.org/2000/svg"><path fill="#1296db" d="M896 864a32 32 0 0 1 0 64H128a32 32 0 0 1 0-64zm-60.16-733.621 15.093 15.093c45.867 45.835 45.867 120.16 0 166.005L418.795 743.34a160.192 160.192 0 0 1-78.123 42.986l-152.245 34.198c-23.84 5.365-44.662-16.854-37.75-40.288l43.339-146.88a160.043 160.043 0 0 1 40.373-67.926l435.328-435.05c45.867-45.835 120.246-45.835 166.112 0zM636.32 254.304 279.68 610.709a96.021 96.021 0 0 0-24.213 40.747l-27.947 94.656 99.093-22.261a96.117 96.117 0 0 0 46.87-25.782l353.45-353.226-90.602-90.539zm78.699-78.656-33.398 33.387 90.603 90.538 33.387-33.376a53.333 53.333 0 0 0 0-75.456l-15.094-15.093a53.408 53.408 0 0 0-75.498 0z"/></svg>