<svg class="icon" width="128" height="128" viewBox="0 0 1024 1024" xmlns="http://www.w3.org/2000/svg"><path fill="#1296db" d="M844.832 885.344c-30.485-20.715-77.781-18.965-144.053 9.387A425.024 425.024 0 0 1 512 938.667c-235.637 0-426.667-191.03-426.667-426.667S276.363 85.333 512 85.333 938.667 276.363 938.667 512a425.013 425.013 0 0 1-44.406 189.717 32 32 0 0 1-57.301-28.49A361.013 361.013 0 0 0 874.667 512c0-200.299-162.368-362.667-362.667-362.667S149.333 311.701 149.333 512 311.701 874.667 512 874.667c56.704 0 111.488-13.014 161.12-37.654l1.6-.746c84.747-36.438 154.176-39.126 206.08-3.862a32 32 0 1 1-35.968 52.939zM512 416a64 64 0 1 1 0-128 64 64 0 0 1 0 128zm160 160a64 64 0 1 1 0-128 64 64 0 0 1 0 128zM512 736a64 64 0 1 1 0-128 64 64 0 0 1 0 128zM352 576a64 64 0 1 1 0-128 64 64 0 0 1 0 128z"/></svg>