<svg class="icon" width="128" height="128" viewBox="0 0 1024 1024" xmlns="http://www.w3.org/2000/svg"><path fill="#1296db" d="M352 633.387 228.736 527.733a74.667 74.667 0 0 1-26.07-56.693V320a74.667 74.667 0 0 1 74.667-74.667h469.334A74.667 74.667 0 0 1 821.333 320v151.04a74.667 74.667 0 0 1-26.069 56.693L672 633.387V896a74.667 74.667 0 0 1-74.667 74.667H426.667A74.667 74.667 0 0 1 352 896V633.387zm-74.667-324.054A10.667 10.667 0 0 0 266.667 320v151.04a10.667 10.667 0 0 0 3.733 8.107l126.976 108.842A53.333 53.333 0 0 1 416 628.48V896a10.667 10.667 0 0 0 10.667 10.667h170.666A10.667 10.667 0 0 0 608 896V628.48a53.333 53.333 0 0 1 18.624-40.49l126.987-108.843a10.667 10.667 0 0 0 3.722-8.107V320a10.667 10.667 0 0 0-10.666-10.667H277.333zm202.667 320a32 32 0 0 1 64 0v85.334a32 32 0 0 1-64 0v-85.334zm0-544a32 32 0 0 1 64 0v85.334a32 32 0 0 1-64 0V85.333zm260.288 11.051a32 32 0 1 1 55.424 32l-42.667 73.899a32 32 0 1 1-55.424-32l42.667-73.899zm-456.576 0 42.667 73.899a32 32 0 1 1-55.424 32l-42.667-73.899a32 32 0 0 1 55.424-32z"/></svg>