<svg class="icon" width="128" height="128" viewBox="0 0 1024 1024" xmlns="http://www.w3.org/2000/svg"><path fill="#1296db" d="M648.256 850.272a32 32 0 1 1-40.704-49.387C758.304 676.693 832 566.037 832 471.072c0-177.728-143.307-321.739-320-321.739S192 293.344 192 471.072c0 115.232 108.416 253.045 329.173 409.493a32 32 0 0 1-37.013 52.214C248.021 765.429 128 612.853 128 471.072c0-213.003 171.883-385.739 384-385.739S896 258.07 896 471.072c0 118.379-83.701 244.053-247.744 379.2zM512 618.667c-82.475 0-149.333-66.859-149.333-149.334S429.525 320 512 320s149.333 66.859 149.333 149.333S594.475 618.667 512 618.667zm0-64A85.333 85.333 0 1 0 512 384a85.333 85.333 0 0 0 0 170.667z"/></svg>