<svg class="icon" width="128" height="128" viewBox="0 0 1024 1024" xmlns="http://www.w3.org/2000/svg"><path fill="#1296db" d="M85.333 469.717c0-17.888 14.326-32.384 32-32.384s32 14.507 32 32.384v316.416c0 5.963 4.779 10.795 10.667 10.795a10.56 10.56 0 0 0 5.045-1.28l154.848-84.021a73.899 73.899 0 0 1 72.854 1.29L645.29 861.76a10.56 10.56 0 0 0 10.122.341l213.334-107.264c3.626-1.824 5.92-5.568 5.92-9.664V469.717c0-17.888 14.325-32.384 32-32.384s32 14.507 32 32.384v275.456c0 28.683-16.054 54.891-41.44 67.659L683.893 920.096a73.899 73.899 0 0 1-70.805-2.379L360.533 768.896a10.56 10.56 0 0 0-10.41-.192l-154.848 84.032a73.973 73.973 0 0 1-35.286 8.96c-41.237 0-74.666-33.813-74.666-75.552V469.717zm672-132.266c0 87.808-73.173 192.917-217.056 320.288a42.667 42.667 0 0 1-56.554 0c-143.894-127.36-217.056-232.48-217.056-320.288C266.667 203.968 376.64 96 512 96s245.333 107.968 245.333 241.45zm-426.666 0c0 61.514 59.712 149.557 181.333 259.701 121.621-110.144 181.333-198.187 181.333-259.701C693.333 239.584 612.277 160 512 160s-181.333 79.573-181.333 177.45zM512 405.333a64 64 0 1 1 0-128 64 64 0 0 1 0 128z"/></svg>