<svg class="icon" width="128" height="128" viewBox="0 0 1024 1024" xmlns="http://www.w3.org/2000/svg"><path fill="#1296db" d="m705.941 173.259 74.667 32a32 32 0 0 1 16.203 15.466l160 330.667c.362.757.693 1.525.992 2.293a74.453 74.453 0 0 1 7.168 41.536l-22.155 192a74.667 74.667 0 0 1-74.176 66.112H624.693a74.667 74.667 0 0 1-74.176-66.112l-7.146-61.888h-62.752l-7.147 61.899a74.667 74.667 0 0 1-74.155 66.101H155.371a74.667 74.667 0 0 1-74.176-66.112l-22.155-192a74.315 74.315 0 0 1 7.115-41.408l.256-.64.8-1.781 160-330.667a32 32 0 0 1 14.112-14.485l2.08-.981 74.666-32a32 32 0 0 1 26.923 58.026l-1.707.79-63.68 27.296-122.24 252.618 264.107.011a74.667 74.667 0 0 1 74.176 83.221L488 661.333h47.979l-7.616-66.101A74.667 74.667 0 0 1 602.539 512h264.106l-122.24-252.63-63.68-27.295a32 32 0 0 1 25.216-58.816zM421.461 576H133.205a10.667 10.667 0 0 0-10.592 11.893l22.155 192a10.667 10.667 0 0 0 10.592 9.44h243.947a10.667 10.667 0 0 0 10.592-9.44l22.154-192A10.667 10.667 0 0 0 421.461 576zm469.334 0H602.539a10.667 10.667 0 0 0-10.592 11.893l22.154 192a10.667 10.667 0 0 0 10.592 9.44H868.64a10.667 10.667 0 0 0 10.592-9.44l22.155-192A10.667 10.667 0 0 0 890.795 576z"/></svg>