<svg class="icon" width="128" height="128" viewBox="0 0 1024 1024" xmlns="http://www.w3.org/2000/svg"><path fill="#1296db" d="M512 128c162.667 0 305.568 102.059 360.459 251.328A138.741 138.741 0 0 1 970.667 512a138.741 138.741 0 0 1-98.208 132.672C817.568 793.942 674.677 896 512 896c-162.667 0-305.568-102.059-360.459-251.328A138.741 138.741 0 0 1 53.333 512a138.741 138.741 0 0 1 98.208-132.672C206.432 230.058 349.323 128 512 128zm0 64c-140.832 0-263.893 91.808-305.387 224.096a32 32 0 0 1-25.802 22.07 74.688 74.688 0 0 0 0 147.669 32 32 0 0 1 25.802 22.08C248.107 740.18 371.168 832 512 832s263.893-91.808 305.387-224.096a32 32 0 0 1 25.802-22.07 74.688 74.688 0 0 0 0-147.669 32 32 0 0 1-25.802-22.08 319.808 319.808 0 0 0-128.715-170.922c-16.704 69.589-77.621 99.477-170.88 85.13a32 32 0 0 1 9.739-63.253c69.216 10.645 97.728-4.981 101.386-52.95A319.221 319.221 0 0 0 512 192zM364.715 639.253a32 32 0 0 1 45.066-4.16A159.19 159.19 0 0 0 512 672c37.888 0 73.675-13.173 102.187-36.885a32 32 0 0 1 40.917 49.216A223.179 223.179 0 0 1 512 736a223.179 223.179 0 0 1-143.136-51.69 32 32 0 0 1-4.15-45.067zM384 405.333A42.667 42.667 0 0 1 426.667 448v42.667a42.667 42.667 0 1 1-85.334 0V448A42.667 42.667 0 0 1 384 405.333zm256 0A42.667 42.667 0 0 1 682.667 448v42.667a42.667 42.667 0 1 1-85.334 0V448A42.667 42.667 0 0 1 640 405.333z"/></svg>