<svg class="icon" width="128" height="128" viewBox="0 0 1024 1024" xmlns="http://www.w3.org/2000/svg"><path fill="#1296db" d="M380.48 563.925c18.421-54.976 70.347-94.592 131.52-94.592s113.099 39.616 131.52 94.592a709.163 709.163 0 0 0 177.813-58.144V202.667A53.333 53.333 0 0 0 768 149.333H256a53.333 53.333 0 0 0-53.333 53.334V505.78a709.152 709.152 0 0 0 177.813 58.144zm268.768 64.011c-9.675 67.136-67.435 118.73-137.248 118.73-69.813 0-127.573-51.594-137.248-118.72a773.11 773.11 0 0 1-172.085-51.829v245.216A53.333 53.333 0 0 0 256 874.667h512a53.333 53.333 0 0 0 53.333-53.334V576.128a773.12 773.12 0 0 1-172.085 51.808zM256 85.333h512c64.8 0 117.333 52.534 117.333 117.334v618.666c0 64.8-52.533 117.334-117.333 117.334H256c-64.8 0-117.333-52.534-117.333-117.334V202.667c0-64.8 52.533-117.334 117.333-117.334zm256 597.334a74.667 74.667 0 1 0 0-149.334 74.667 74.667 0 0 0 0 149.334z"/></svg>